# Blender v2.76 (sub 0) OBJ File: 'bushy_tree.blend'
# www.blender.org
mtllib bushy_tree.mtl
o Icosphere
v -0.092798 2.100456 0.104688
v 0.856022 2.507225 0.626828
v -0.449536 2.541349 1.209965
v -1.248354 2.410158 0.111877
v -0.449661 2.411798 -0.991316
v 0.843259 2.411798 -0.571213
v 0.284105 3.171594 1.048066
v -1.026124 3.067059 0.802496
v -1.027415 3.092640 -0.569832
v 0.265576 3.092504 -0.989727
v 1.078687 3.201039 -0.072601
v -0.049047 3.439582 0.218913
v -0.302787 2.332284 0.752101
v 0.458787 2.195983 0.484132
v 0.250776 2.471025 1.113922
v 1.010695 2.376474 0.067230
v 0.457599 2.104398 -0.291025
v -0.772156 2.180399 0.107815
v -0.981794 2.439187 0.757916
v -0.302340 2.104123 -0.537822
v -0.982089 2.351952 -0.537948
v 0.247559 2.351951 -0.937482
v 1.155791 2.894921 0.268579
v 1.138308 2.760162 -0.303630
v -0.090272 2.784032 1.398302
v 0.686683 2.884940 0.920039
v -1.321196 2.740901 0.514695
v -0.850989 2.771933 1.165881
v -0.852275 2.752671 -0.937488
v -1.321959 2.752671 -0.291020
v 0.667652 2.752671 -0.937488
v -0.092311 2.752671 -1.184415
v 0.836351 3.382976 0.366257
v -0.429182 3.124173 1.175518
v -1.190600 3.149223 0.113473
v -0.430450 3.150037 -0.932364
v 0.799141 3.150264 -0.533194
v 0.157939 3.442257 0.665234
v 0.618999 3.468087 -0.009960
v -0.622552 3.340458 0.574157
v -0.622669 3.363154 -0.233229
v 0.137592 3.362558 -0.479249
vn -0.056600 -0.945600 0.320300
vn 0.507500 -0.797400 0.326600
vn -0.110000 -0.946500 0.303300
vn -0.116700 -0.992600 0.032400
vn 0.002500 -1.000000 -0.006500
vn 0.869500 -0.370300 0.326900
vn 0.039200 -0.648200 0.760500
vn -0.748600 -0.572400 0.334600
vn -0.523500 -0.510600 -0.682100
vn 0.487000 -0.510600 -0.708600
vn 0.809000 -0.088500 0.581200
vn -0.274100 -0.302700 0.912800
vn -0.977100 -0.212500 -0.002200
vn -0.302100 -0.210000 -0.929800
vn 0.784600 -0.219000 -0.580000
vn 0.287100 0.824200 0.488100
vn -0.339000 0.845300 0.413000
vn -0.440200 0.880100 -0.178000
vn 0.035400 0.887000 -0.460400
vn 0.433200 0.828800 -0.354300
vn -0.087500 0.987300 -0.132300
vn 0.241300 0.864100 -0.441800
vn 0.249700 0.880400 -0.403200
vn -0.037900 0.992100 -0.119600
vn -0.101300 0.943500 -0.315500
vn -0.299400 0.886600 -0.352600
vn -0.153500 0.987800 0.027800
vn -0.338200 0.940700 0.026500
vn -0.462500 0.860600 0.213000
vn -0.135700 0.989100 0.057000
vn -0.163100 0.910500 0.379900
vn 0.046500 0.822800 0.566400
vn -0.038600 0.999200 0.011900
vn 0.146100 0.979700 0.137200
vn 0.491400 0.866500 -0.087900
vn 0.774500 0.372600 -0.511200
vn 0.757400 0.325300 -0.566200
vn 0.524000 0.515800 -0.677700
vn -0.027600 0.518600 -0.854600
vn -0.292500 0.322200 -0.900400
vn -0.479700 0.518400 -0.707900
vn -0.822300 0.516300 -0.239100
vn -0.950900 0.309500 0.005400
vn -0.818500 0.514000 0.256700
vn -0.478500 0.554400 0.680900
vn -0.282100 0.313000 0.906900
vn 0.099400 0.612600 0.784100
vn 0.574000 0.525700 0.627900
vn 0.747700 0.380500 0.544200
vn 0.831700 0.493400 0.254700
vn 0.301800 0.214300 -0.929000
vn 0.294000 -0.308200 -0.904800
vn 0.022500 -0.510600 -0.859500
vn -0.790300 0.213800 -0.574200
vn -0.769600 -0.308200 -0.559200
vn -0.810500 -0.511000 -0.286300
vn -0.795500 0.222200 0.563800
vn -0.739000 -0.386300 0.552000
vn -0.431200 -0.626500 0.649300
vn 0.473200 0.293500 0.830600
vn 0.532500 -0.172600 0.828600
vn 0.609300 -0.297400 0.735000
vn 0.983000 0.169600 -0.070000
vn 0.958500 -0.282700 0.037300
vn 0.824400 -0.510500 -0.244500
vn 0.349100 -0.831600 -0.431900
vn 0.127100 -0.911800 -0.390500
vn -0.028500 -0.831500 -0.554800
vn -0.303100 -0.831500 -0.465700
vn -0.339300 -0.930700 -0.136900
vn -0.433200 -0.896100 -0.097200
vn -0.423000 -0.880500 0.214100
vn -0.144300 -0.934500 0.325400
vn -0.141200 -0.916900 0.373400
vn 0.527300 -0.829500 -0.184200
vn 0.381700 -0.918000 0.107900
vn 0.091000 -0.989000 0.116700
vn -0.036100 -0.913400 0.405500
vn -0.026300 -0.919300 0.392800
vn 0.429600 -0.766900 0.476800
usemtl Material.001
s off
f 1//1 14//1 13//1
f 2//2 14//2 16//2
f 1//3 13//3 18//3
f 1//4 18//4 20//4
f 1//5 20//5 17//5
f 2//6 16//6 23//6
f 3//7 15//7 25//7
f 4//8 19//8 27//8
f 5//9 21//9 29//9
f 6//10 22//10 31//10
f 2//11 23//11 26//11
f 3//12 25//12 28//12
f 4//13 27//13 30//13
f 5//14 29//14 32//14
f 6//15 31//15 24//15
f 7//16 33//16 38//16
f 8//17 34//17 40//17
f 9//18 35//18 41//18
f 10//19 36//19 42//19
f 11//20 37//20 39//20
f 39//21 42//21 12//21
f 39//22 37//22 42//22
f 37//23 10//23 42//23
f 42//24 41//24 12//24
f 42//25 36//25 41//25
f 36//26 9//26 41//26
f 41//27 40//27 12//27
f 41//28 35//28 40//28
f 35//29 8//29 40//29
f 40//30 38//30 12//30
f 40//31 34//31 38//31
f 34//32 7//32 38//32
f 38//33 39//33 12//33
f 38//34 33//34 39//34
f 33//35 11//35 39//35
f 24//36 37//36 11//36
f 24//37 31//37 37//37
f 31//38 10//38 37//38
f 32//39 36//39 10//39
f 32//40 29//40 36//40
f 29//41 9//41 36//41
f 30//42 35//42 9//42
f 30//43 27//43 35//43
f 27//44 8//44 35//44
f 28//45 34//45 8//45
f 28//46 25//46 34//46
f 25//47 7//47 34//47
f 26//48 33//48 7//48
f 26//49 23//49 33//49
f 23//50 11//50 33//50
f 31//51 32//51 10//51
f 31//52 22//52 32//52
f 22//53 5//53 32//53
f 29//54 30//54 9//54
f 29//55 21//55 30//55
f 21//56 4//56 30//56
f 27//57 28//57 8//57
f 27//58 19//58 28//58
f 19//59 3//59 28//59
f 25//60 26//60 7//60
f 25//61 15//61 26//61
f 15//62 2//62 26//62
f 23//63 24//63 11//63
f 23//64 16//64 24//64
f 16//65 6//65 24//65
f 17//66 22//66 6//66
f 17//67 20//67 22//67
f 20//68 5//68 22//68
f 20//69 21//69 5//69
f 20//70 18//70 21//70
f 18//71 4//71 21//71
f 18//72 19//72 4//72
f 18//73 13//73 19//73
f 13//74 3//74 19//74
f 16//75 17//75 6//75
f 16//76 14//76 17//76
f 14//77 1//77 17//77
f 13//78 15//78 3//78
f 13//79 14//79 15//79
f 14//80 2//80 15//80
o Cube
v 0.593257 -0.111293 -0.288022
v 0.633605 -0.153030 0.627033
v -0.493170 -0.207299 0.573114
v -0.464513 -0.129299 -0.419483
v 0.336200 2.310998 -0.084849
v 0.360056 2.383242 0.379757
v -0.209457 2.283449 0.349734
v -0.191116 2.373641 -0.157411
v 0.739939 -0.163651 0.179986
v 0.206643 -0.114394 -0.571830
v 0.572937 1.197434 -0.192666
v 0.081126 -0.184073 0.838045
v 0.601384 1.156469 0.487966
v -0.733512 -0.223133 0.086075
v -0.227453 1.120255 0.443423
v -0.200978 1.137013 -0.297863
v 0.410252 2.323672 0.156465
v 0.140632 2.302008 -0.225935
v 0.077985 2.369392 0.486328
v -0.327361 2.309827 0.091786
v 0.286760 1.137771 -0.406791
v -0.407824 1.036476 0.067132
v 0.190857 1.126820 0.647734
v 0.677960 1.163799 0.165848
v 0.705446 -0.156657 0.393142
v -0.074690 -0.108406 -0.539250
v 0.413660 1.735864 -0.146851
v -0.204431 -0.211694 0.736793
v 0.444792 1.767305 0.454322
v -0.611699 -0.179218 -0.183386
v -0.287365 1.776896 0.411688
v -0.266087 1.760301 -0.240903
v 0.395194 2.349480 0.263348
v 0.001148 2.342720 -0.210883
v -0.065097 2.378316 0.435603
v -0.262653 2.271758 -0.042925
v 0.667658 -0.148273 -0.022167
v 0.408083 -0.108976 -0.453837
v 0.516999 0.618461 -0.228460
v 0.353748 -0.147897 0.771978
v 0.562939 0.517802 0.561836
v -0.646231 -0.209922 0.311567
v -0.417364 0.444394 0.512532
v -0.390399 0.499128 -0.368999
v 0.373713 2.315579 0.053631
v 0.242127 2.295382 -0.168840
v 0.217730 2.368740 0.451365
v -0.283227 2.242015 0.210097
v 0.078837 1.138265 -0.379833
v 0.438675 1.166947 -0.322166
v 0.159608 1.699242 -0.328847
v 0.189693 0.532985 -0.480821
v -0.313758 1.081391 -0.135230
v -0.337219 1.071838 0.242017
v -0.645994 0.388318 0.067799
v -0.445169 1.664204 0.080831
v -0.018231 1.117898 0.571284
v 0.396028 1.138797 0.595321
v 0.081417 0.474252 0.748644
v 0.078565 1.743050 0.592677
v 0.654655 1.156634 0.321547
v 0.626939 1.187705 0.012235
v 0.641205 0.558396 0.180687
v 0.508283 1.729758 0.167130
v 0.461921 1.734767 0.032711
v 0.579074 0.600637 0.004736
v 0.619031 0.534745 0.362607
v 0.260328 1.748328 0.547166
v 0.322312 0.501422 0.690543
v -0.165351 0.450982 0.659387
v -0.381558 1.718436 0.233700
v -0.558331 0.412615 0.275925
v -0.529966 0.438722 -0.174304
v 0.360858 0.573400 -0.374166
v 0.291561 1.708091 -0.255607
v -0.020266 1.728661 -0.310639
v -0.052892 0.522556 -0.461205
v -0.359469 1.697742 -0.093795
v -0.106004 1.749014 0.527011
v 0.489630 1.744140 0.305057
vn 0.953700 0.163900 0.252000
vn -0.542800 0.167900 0.822900
vn -0.879000 0.177300 -0.442700
vn -0.284500 0.118800 -0.951300
vn -0.273400 0.062800 -0.959900
vn 0.450300 0.225200 -0.864000
vn 0.499500 0.134000 -0.855900
vn -0.822200 0.302000 -0.482600
vn -0.891700 0.321700 0.318400
vn -0.912400 0.172700 0.371200
vn -0.500300 0.223500 0.836500
vn 0.229400 0.114400 0.966600
vn 0.237300 0.163500 0.957600
vn 0.958000 -0.030300 0.285100
vn 0.939300 -0.068700 -0.336300
vn 0.932600 0.150700 -0.327800
vn 0.917300 0.281300 -0.281900
vn 0.926500 0.291300 -0.238200
vn 0.953400 0.155200 -0.258800
vn 0.940700 0.125700 -0.315200
vn 0.960700 0.121700 -0.249400
vn 0.962700 -0.076000 -0.259800
vn 0.949900 0.129500 0.284500
vn 0.980500 0.131500 0.146200
vn 0.990300 -0.052500 0.128600
vn 0.237900 0.129200 0.962700
vn 0.438400 0.164200 0.883700
vn 0.429600 0.166500 0.887500
vn 0.217600 0.131500 0.967100
vn 0.459000 0.133100 0.878400
vn 0.461900 0.076500 0.883600
vn -0.493900 0.133400 0.859200
vn -0.345000 0.127700 0.929900
vn -0.347200 0.198800 0.916500
vn -0.917800 -0.060500 0.392400
vn -0.872900 -0.054900 0.484800
vn -0.891500 0.186800 0.412700
vn -0.921700 0.146700 0.359200
vn -0.856200 0.147400 0.495200
vn -0.851400 0.295600 0.433300
vn -0.840400 0.130200 -0.526100
vn -0.908400 0.122100 -0.399800
vn -0.881100 0.320500 -0.347800
vn 0.506700 0.016700 -0.861900
vn 0.691000 -0.024700 -0.722400
vn 0.659400 0.130700 -0.740400
vn 0.479600 0.164900 -0.861800
vn 0.637500 0.165900 -0.752400
vn 0.626700 0.254500 -0.736500
vn -0.245700 0.162000 -0.955700
vn -0.066500 0.164100 -0.984200
vn -0.107000 0.105300 -0.988700
vn -0.273700 0.184900 -0.943900
vn -0.104900 0.144900 -0.983900
vn -0.099400 0.130800 -0.986400
vn -0.826900 -0.029300 -0.561600
vn -0.898600 -0.040600 -0.436900
vn -0.884000 0.177500 -0.432400
vn -0.529100 -0.010600 0.848500
vn -0.339600 0.020400 0.940300
vn -0.324200 0.157300 0.932800
vn 0.927300 0.260100 0.269200
vn 0.951900 0.277900 0.129200
vn 0.980800 0.162100 0.108400
usemtl Material
s off
f 122//81 75//81 48//81 71//81
f 121//82 77//82 49//82 73//82
f 120//83 78//83 50//83 74//83
f 119//84 68//84 46//84 86//84
f 118//85 91//85 58//85 74//85
f 117//86 92//86 63//86 93//86
f 116//87 80//87 52//87 94//87
f 115//88 95//88 58//88 86//88
f 114//89 96//89 64//89 97//89
f 113//90 90//90 62//90 98//90
f 112//91 99//91 57//91 85//91
f 111//92 100//92 65//92 101//92
f 110//93 89//93 61//93 102//93
f 109//94 103//94 55//94 83//94
f 108//95 104//95 66//95 105//95
f 107//96 87//96 59//96 106//96
f 104//97 107//97 106//97 66//97
f 53//98 69//98 107//98 104//98
f 69//99 47//99 87//99 107//99
f 79//100 108//100 105//100 51//100
f 43//101 81//101 108//101 79//101
f 81//102 53//102 104//102 108//102
f 67//103 109//103 83//103 44//103
f 51//104 105//104 109//104 67//104
f 105//105 66//105 103//105 109//105
f 100//106 110//106 102//106 65//106
f 55//107 71//107 110//107 100//107
f 71//108 48//108 89//108 110//108
f 82//109 111//109 101//109 54//109
f 44//110 83//110 111//110 82//110
f 83//111 55//111 100//111 111//111
f 70//112 112//112 85//112 45//112
f 54//113 101//113 112//113 70//113
f 101//114 65//114 99//114 112//114
f 96//115 113//115 98//115 64//115
f 57//116 73//116 113//116 96//116
f 73//117 49//117 90//117 113//117
f 84//118 114//118 97//118 56//118
f 45//119 85//119 114//119 84//119
f 85//120 57//120 96//120 114//120
f 72//121 115//121 86//121 46//121
f 56//122 97//122 115//122 72//122
f 97//123 64//123 95//123 115//123
f 92//124 116//124 94//124 63//124
f 53//125 81//125 116//125 92//125
f 81//126 43//126 80//126 116//126
f 88//127 117//127 93//127 60//127
f 47//128 69//128 117//128 88//128
f 69//129 53//129 92//129 117//129
f 76//130 118//130 74//130 50//130
f 60//131 93//131 118//131 76//131
f 93//132 63//132 91//132 118//132
f 91//133 119//133 86//133 58//133
f 63//134 94//134 119//134 91//134
f 94//135 52//135 68//135 119//135
f 95//136 120//136 74//136 58//136
f 64//137 98//137 120//137 95//137
f 98//138 62//138 78//138 120//138
f 99//139 121//139 73//139 57//139
f 65//140 102//140 121//140 99//140
f 102//141 61//141 77//141 121//141
f 103//142 122//142 71//142 55//142
f 66//143 106//143 122//143 103//143
f 106//144 59//144 75//144 122//144
